<?xml version="1.0" encoding="utf-8"?>
<!-- Generator: Adobe Illustrator 16.0.0, SVG Export Plug-In . SVG Version: 6.00 Build 0)  -->
<!DOCTYPE svg PUBLIC "-//W3C//DTD SVG 1.1//EN" "http://www.w3.org/Graphics/SVG/1.1/DTD/svg11.dtd">
<svg version="1.1" id="Layer_1" xmlns="http://www.w3.org/2000/svg" xmlns:xlink="http://www.w3.org/1999/xlink" x="0px" y="0px"
	 width="800px" height="800px" viewBox="0 0 800 800" enable-background="new 0 0 800 800" xml:space="preserve">
<path fill="#546DE5" d="M690.881,723.366c0,15.12-36,51.84-83.52,51.84c-183.602,0-233.281-234.001-273.601-328.32
	c-33.84,91.44-61.92,174.24-61.92,201.601c0,24.479-92.161,6.479-92.161-41.04c0-48.96,123.84-294.481,155.52-474.481
	c-87.12,66.24-157.68,166.32-157.68,227.521c0,49.681,25.2,65.521,6.48,65.521c-18.72,0-74.88-37.44-74.88-127.44
	c0-84.96,184.32-261.36,379.441-261.36c316.801,0,207.359,309.6-80.641,349.2c22.32,58.32,76.32,343.44,231.84,343.44
	C662.08,729.846,690.881,695.286,690.881,723.366z M445.361,145.925c-1.441,12.96-35.281,99.36-72.721,197.281
	c251.28-15.12,267.84-277.201,123.84-277.201c-31.68,0-65.52,10.8-99.36,28.08C422.32,108.485,446.801,130.805,445.361,145.925z"/>
</svg>
