<?xml version="1.0" encoding="utf-8"?>
<!-- Generator: Adobe Illustrator 16.0.0, SVG Export Plug-In . SVG Version: 6.00 Build 0)  -->
<!DOCTYPE svg PUBLIC "-//W3C//DTD SVG 1.1//EN" "http://www.w3.org/Graphics/SVG/1.1/DTD/svg11.dtd">
<svg version="1.1" id="Layer_1" xmlns="http://www.w3.org/2000/svg" xmlns:xlink="http://www.w3.org/1999/xlink" x="0px" y="0px"
	 width="1000px" height="500px" viewBox="0 0 1000 500" enable-background="new 0 0 1000 500" xml:space="preserve">
<g>
	<path d="M171.246,321.942c0,4.046-9.631,13.869-22.345,13.869c-49.12,0-62.411-62.604-73.198-87.838
		c-9.053,24.464-16.565,46.616-16.565,53.936c0,6.55-24.656,1.733-24.656-10.979c0-13.099,33.132-78.784,41.607-126.941
		c-23.308,17.722-42.186,44.497-42.186,60.87c0,13.292,6.742,17.529,1.733,17.529c-5.008,0-20.033-10.017-20.033-34.095
		c0-22.73,49.313-69.924,101.515-69.924c84.756,0,55.477,82.83-21.574,93.424c5.972,15.603,20.418,91.883,62.026,91.883
		C163.541,323.676,171.246,314.43,171.246,321.942z M105.561,167.456c-0.385,3.467-9.438,26.582-19.455,52.779
		c67.227-4.045,71.657-74.161,33.132-74.161c-8.476,0-17.529,2.89-26.583,7.513C99.396,157.439,105.946,163.411,105.561,167.456z"/>
	<path d="M236.352,245.47c-8.476,11.75-46.23,61.063-72.813,61.063c-12.906,0-30.243-15.987-29.472-25.427
		c3.082-34.673,32.747-70.887,49.891-70.887c14.64,0,27.16,17.529,26.39,28.509c-0.963,10.787-19.455,34.095-36.792,34.095
		c-5.008,0-9.053-0.77-12.328-1.926c-5.201,13.677-6.549,25.041,0.771,25.041c23.886,0,56.054-39.488,70.309-56.054
		C235.966,235.453,237.314,244.121,236.352,245.47z M168.162,255.102c20.033-4.624,31.398-30.628,23.693-30.628
		C186.461,224.474,176.252,239.113,168.162,255.102z"/>
	<path d="M271.406,226.978c-6.742,0-23.886,39.104-25.427,58.751c-0.771,8.861,2.89,10.017,6.549,10.017
		c13.484,0,43.919-38.718,58.173-55.477c3.66-4.623,5.394,4.238,4.431,5.586c-8.476,11.943-43.727,60.677-70.694,60.677
		c-18.685,0-28.316-15.218-27.546-24.271c1.541-17.914,26.39-72.043,46.616-72.043c27.738,0,30.435,22.538,27.738,25.042
		C288.55,237.765,284.697,226.978,271.406,226.978z"/>
	<path d="M370.029,247.781c-7.513,11.943-36.792,56.633-54.514,58.751c-0.192,0-0.578,0-1.155,0c-3.853,0-23.886-2.118-22.73-15.795
		c1.156-13.677,27.931-67.998,28.702-75.703c0.771-9.246,21.574,3.467,20.997,11.172c-0.578,6.549-16.759,46.615-22.923,64.338
		c-0.963,3.274-0.771,5.2,0.963,5.2c8.283,0,35.059-36.599,47.579-54.898C371.185,234.683,371.185,246.048,370.029,247.781z
		 M324.184,187.682c0.963-10.209,14.447-23.308,24.656-23.308c7.705,0,12.906,4.815,12.328,12.906
		c-0.771,8.283-9.246,22.922-20.226,22.922C332.66,200.202,323.606,194.424,324.184,187.682z"/>
	<path d="M474.431,247.011c-9.824,13.099-53.165,68.575-82.637,68.575c-10.98,0-16.951-9.054-18.107-14.062
		c-10.017,28.123-19.07,53.743-19.455,56.632c-0.192,3.66,1.733,3.275-0.578,5.394c-2.889,2.505-24.849,1.349-23.308-17.528
		c1.156-13.677,37.947-87.838,41.993-135.032c0.963-9.246,27.738,6.742,27.161,14.64c-0.193,1.927-2.697,9.439-6.164,20.033
		c10.401-16.181,24.463-35.443,32.168-35.443c18.299,0,24.271,11.558,22.922,25.813c-0.963,10.979-10.209,33.709-22.537,52.201
		c17.914-15.217,37.177-36.791,44.882-48.156C475.009,234.104,475.779,245.277,474.431,247.011z M428.008,222.162
		c-12.328,0-36.984,40.837-46.616,57.402c-2.119,6.164-4.43,12.521-6.549,18.878C399.499,297.094,435.713,222.162,428.008,222.162z"
		/>
	<path d="M559.569,245.47c-8.476,11.75-46.23,61.063-72.813,61.063c-12.906,0-30.243-15.987-29.472-25.427
		c3.082-34.673,32.747-70.887,49.891-70.887c14.64,0,27.16,17.529,26.39,28.509c-0.963,10.787-19.455,34.095-36.792,34.095
		c-5.008,0-9.053-0.77-12.328-1.926c-5.201,13.677-6.549,25.041,0.771,25.041c23.885,0,56.054-39.488,70.309-56.054
		C559.184,235.453,560.532,244.121,559.569,245.47z M491.379,255.102c20.033-4.624,31.398-30.628,23.693-30.628
		C509.679,224.474,499.47,239.113,491.379,255.102z"/>
	<path d="M664.355,247.974c-2.89,4.431-43.727,58.751-59.907,72.043c-0.577,0.385-0.963,0.771-1.541,1.155
		c-17.528,39.488-38.91,76.28-58.173,76.28c-16.181,0-19.648-12.521-19.07-19.841c0.963-10.016,20.996-23.885,45.46-41.8
		c8.476-17.914,16.951-38.525,24.271-57.788c-9.823,14.063-21.767,29.087-27.16,29.087c-10.401,0-28.894-9.632-27.738-24.078
		c1.349-14.64,27.932-74.162,43.148-74.162c13.677,0,23.886,9.631,29.665,16.951c1.733-5.779,2.696-9.824,2.89-11.943
		c0.77-9.054,21.574,3.467,20.996,11.365c-0.386,3.66-11.173,39.681-26.775,78.014c17.144-18.685,45.652-56.055,50.083-62.219
		C664.74,234.875,665.512,246.24,664.355,247.974z M563.033,351.607c-15.603,11.558-26.774,20.418-27.353,26.197
		c-0.386,3.853,0.963,4.045,1.733,4.045C544.156,381.85,553.402,369.521,563.033,351.607z M609.649,237.765
		c0.578-2.119,1.349-4.045,1.927-5.972c-3.082-1.926-7.513-3.66-12.906-3.66c-10.787,0-38.525,67.227-30.05,67.227
		C575.939,295.36,602.907,249.515,609.649,237.765z"/>
	<path d="M737.55,247.974c-7.513,11.943-34.095,61.256-52.009,63.374c-0.193,0-0.578,0.193-1.156,0.193
		c-3.853,0-23.886-2.312-22.73-15.988c1.156-13.677,18.878-41.029,19.456-48.927c0.385-4.623-2.697-7.898-7.705-11.365
		c-3.66,5.586-7.32,10.401-9.438,13.291c-1.734,2.312-5.779-4.045-4.046-6.356c1.927-2.504,4.238-6.357,7.32-10.787
		c-8.861-6.164-18.107-14.062-16.566-30.436c1.733-20.033,24.464-34.865,34.866-34.865c5.586,0,10.016,5.201,8.86,19.07
		c-0.963,11.172-6.356,23.886-12.521,35.443c10.017,7.897,24.656,11.558,23.5,25.234c-0.578,6.165-11.942,34.672-16.951,49.505
		c-0.963,3.467-0.771,5.394,0.963,5.394c8.283,0,31.784-41.415,44.305-59.715C737.936,234.875,738.705,246.24,737.55,247.974z
		 M677.064,215.612c5.587-10.209,10.402-21.574,11.173-30.82c0.771-8.09-0.578-10.401-3.468-10.401
		c-4.623,0-11.172,16.181-11.942,25.812C672.249,206.944,673.982,211.76,677.064,215.612z"/>
	<path d="M839.254,247.781c-7.512,11.943-37.177,56.633-54.898,58.751c-0.192,0-0.578,0-1.156,0
		c-3.852,0-23.885-2.118-22.729-15.795c0.192-1.733,0.578-3.853,1.349-6.55c-9.054,11.558-18.686,22.152-23.309,22.152
		c-10.401,0-28.894-9.631-27.738-24.078c1.349-14.64,29.473-72.235,44.497-72.235c13.677,0,23.886,9.631,29.665,16.951
		c2.504-5.779,4.045-10.209,4.237-11.943c0.771-9.246,21.574,3.467,20.804,11.172c-0.385,6.549-16.565,46.615-22.729,64.53
		c-0.964,3.082-0.771,5.008,0.963,5.008c8.283,0,34.673-36.599,47.193-54.898C839.64,234.683,840.41,246.048,839.254,247.781z
		 M778.576,242.388c1.349-3.467,2.89-6.742,4.046-9.824c-3.082-1.541-7.128-3.082-12.136-3.082
		c-10.979,0-40.066,65.108-31.591,65.108C745.83,294.59,770.102,256.064,778.576,242.388z"/>
	<path d="M983.916,247.781c-7.513,11.75-36.407,57.788-54.321,61.063c-4.237,1.541-21.96-5.201-20.804-18.106
		c0.771-8.669,11.172-31.013,19.263-50.469c-17.722,21.96-35.443,43.341-40.645,51.817c0,1.348,0,2.504-0.963,3.467
		c-3.082,2.697-21.188-4.238-19.841-17.914c0.578-8.091,7.898-24.078,13.869-38.718c-11.75,16.758-34.287,49.698-41.8,63.567
		c0.192,1.927,0.578,3.082-0.771,4.237c-2.89,2.89-22.73-4.045-21.574-17.721c1.156-13.677,26.968-60.293,28.316-75.703
		c0.771-9.246,21.574,3.468,20.996,11.365c-0.385,4.431-8.861,26.005-16.181,44.882c8.476-13.099,30.435-45.845,39.104-56.247
		v-0.192c0.771-9.246,21.574,3.467,20.996,11.172c-0.386,5.394-9.824,28.894-16.373,45.845
		c9.631-14.255,35.443-51.624,44.882-59.714c0.385-0.771,0.963-1.156,1.926-1.348c0.193-0.193,0.578-0.193,0.771-0.193
		c0.192,0,0.385,0,0.385,0c6.356,0.193,17.722,8.668,17.336,14.64c-0.577,6.549-18.685,51.046-25.041,69.731
		c-0.771,2.696-0.385,4.237,1.156,4.237c8.282,0,32.938-38.525,45.459-56.824C984.301,234.683,985.071,245.855,983.916,247.781z"/>
</g>
</svg>
